<svg xmlns="http://www.w3.org/2000/svg" version="1.1" xmlns:xlink="http://www.w3.org/1999/xlink" xmlns:svgjs="http://svgjs.dev/svgjs" width="100%" height="100%" viewBox="0 0 1000 600"><rect width="1000" height="600" x="0" y="0" fill="#f4a950"/><g><circle r="166.66666666666666" cx="360.88158671061194" cy="383.1038079285677" fill="#161b21" transform="matrix(0.6436168192882276,0,0,0.6436168192882276,0,53.42792439185351)"/><path d="M316.1251554489945 315.5536787009895L321.05352235482246 316.35597098798473Q323.3457860319517 316.35597098798473 327.4718606507844 315.1238792615278L327.4718606507844 315.1238792615278Q349.7354716149023 308.1038217503194 362.2283086552568 308.1038217503194Q374.6924923996471 308.1038217503194 384.80710587498 311.94336340951094Q394.92171935031286 315.75425177273837 402.14234993327005 324.0064010104037Q409.3629805162272 332.258550248069 409.3629805162272 341.7427912121914Q409.3629805162272 351.2270321763136 405.5520921529998 358.7628490148761Q401.7412037897724 366.2986658534385 394.92171935031286 372.2872047099387L394.92171935031286 372.2872047099387Q382.9446416373125 382.37316488930753 367.07071567319235 390.22416798347524L367.07071567319235 390.22416798347524Q380.6810312561473 397.4447985664324 380.6810312561473 415.61098820768177L380.6810312561473 415.61098820768177L380.4804581843985 424.46485666059357Q380.4804581843985 438.7055447547591 387.90166183910446 438.7055447547591L387.90166183910446 438.7055447547591Q395.5520918615234 438.7055447547591 403.57501473147585 432.1152866830124L403.57501473147585 432.1152866830124Q406.2684245521027 430.05224937359606 406.8987970633132 430.05224937359606L406.8987970633132 430.05224937359606Q408.5320349332678 430.05224937359606 408.5320349332678 432.51643282651L408.5320349332678 432.51643282651Q408.5320349332678 439.7370634094673 399.44894011264313 451.7141411224676L399.44894011264313 451.7141411224676Q394.0907737673535 458.1038261224654 387.29994262385804 458.1038261224654L387.29994262385804 458.1038261224654Q378.01627473148454 458.1038261224654 371.9131226911279 447.9892126471326Q365.83862394673537 437.8745991717997 365.83862394673537 427.9892120641798L365.83862394673537 427.9892120641798L366.239770090233 417.04365300588756Q366.239770090233 403.23276435118373 361.9131223996515 399.50783587584874L361.9131223996515 399.50783587584874Q359.64951201848635 397.64537163818113 355.9245835431513 395.78290740051364L355.9245835431513 395.78290740051364L349.33432547140467 398.8774633646382Q346.6409156507778 418.90611724355506 346.6409156507778 431.08376802830423L346.6409156507778 431.08376802830423L346.8414887225266 449.0207313018408Q346.8414887225266 456.64250802829554 342.51484103194514 456.64250802829554L342.51484103194514 456.64250802829554Q340.88160316199054 456.64250802829554 337.5578208301531 454.80869708659213L337.5578208301531 454.80869708659213Q324.37730468665984 446.5565478489268 319.8214306283654 425.09522917180414L319.8214306283654 425.09522917180414Q319.62085755661667 424.06371051709596 319.62085755661667 423.4333380058854L319.62085755661667 423.4333380058854Q319.62085755661667 421.5708737682178 322.6008003368847 421.5708737682178Q325.6093964131168 421.5708737682178 327.7583936104255 423.347378117993Q329.9360441036983 425.09522917180414 330.9675627584065 426.84308022561515Q331.99908141311465 428.5909312794262 332.6294539243252 428.5909312794262L332.6294539243252 428.5909312794262Q334.4632648660286 428.5909312794262 334.4632648660286 425.09522917180414L334.4632648660286 425.09522917180414L333.66097257903334 415.3817618399688Q334.2626917942798 383.4046835440156 338.8185658525742 349.16399486689727L338.8185658525742 349.16399486689727Q340.25123065078 340.08090004627263 340.88160316199054 337.61671659335866Q341.48332237723696 335.1525331404447 341.48332237723696 334.0064013018801Q341.48332237723696 332.8602694633155 341.28274930548815 332.258550248069L341.28274930548815 332.258550248069Q333.23117313957164 334.5221606292342 330.05065728755477 337.73132977721514Q326.8414881395738 340.91184562923195 324.4632645745522 340.91184562923195Q322.0850410095306 340.91184562923195 320.76698939518127 340.51069948573434Q319.4202844848678 340.08090004627263 318.2741526463032 338.7628484319233Q317.1566741037027 337.41614352160985 316.52630159249213 336.78577101039934L316.52630159249213 336.78577101039934Q312.40022697365947 330.79723215389913 312.40022697365947 326.2700113915688L312.40022697365947 326.2700113915688Q312.40022697365947 315.5536787009895 316.1251554489945 315.5536787009895L316.1251554489945 315.5536787009895ZM392.8586820408965 338.447662176318Q392.8586820408965 333.2900689027772 383.6896273323795 330.9118453377556Q374.4919193278983 328.53362177273397 367.58647500054644 328.53362177273397Q360.6810306731945 328.53362177273397 355.5234373996537 329.36456735569334L355.5234373996537 329.36456735569334Q354.8930648884431 331.8287508086073 354.8930648884431 343.4906422660024Q354.8930648884431 355.1525337233975 352.4288814355292 375.9834798893097L352.4288814355292 375.9834798893097Q377.1853291485252 366.6998119969362 391.62659031443957 342.5737367951507L391.62659031443957 342.5737367951507Q392.8586820408965 340.08090004627263 392.8586820408965 338.447662176318L392.8586820408965 338.447662176318Z " fill="#f4a950" transform="matrix(0.6436168192882276,0,0,0.6436168192882276,0,53.42792439185351)"/><path d="M613.7692092024324 316.10026880338546L617.5897334829556 316.72221461649383Q619.3667215204082 316.72221461649383 622.5652999878228 315.7670835463631L622.5652999878228 315.7670835463631Q639.8242963015813 310.3250576816645 649.508881105698 310.3250576816645Q659.1712535593466 310.3250576816645 667.0122132746062 313.3015126443976Q674.8531729898659 316.2557552566625 680.4506853078417 322.65291219149196Q686.0481976258174 329.0500691263213 686.0481976258174 336.4023571312815Q686.0481976258174 343.7546451362417 683.0939550135524 349.59649330936713Q680.1397124012874 355.43834148249266 674.8531729898659 360.0807227303376L674.8531729898659 360.0807227303376Q665.5684104941761 367.8994700951291 653.2627683348167 373.9856541234043L653.2627683348167 373.9856541234043Q663.8136348071916 379.58316644137994 663.8136348071916 393.665796638192L663.8136348071916 393.665796638192L663.6581483539144 400.52941293285267Q663.6581483539144 411.56895111552706 669.4111471251673 411.56895111552706L669.4111471251673 411.56895111552706Q675.3418447001654 411.56895111552706 681.5613028312496 406.4601105078508L681.5613028312496 406.4601105078508Q683.6492637752563 404.8608212741434 684.1379354855558 404.8608212741434L684.1379354855558 404.8608212741434Q685.4040394622408 404.8608212741434 685.4040394622408 406.771083414405L685.4040394622408 406.771083414405Q685.4040394622408 412.36859573238064 678.3627243638348 421.6533582280706L678.3627243638348 421.6533582280706Q674.2090148262894 426.6067123824697 668.944687765336 426.6067123824697L668.944687765336 426.6067123824697Q661.7478862136529 426.6067123824697 657.0166555639353 418.7657526672101Q652.3076372646859 410.9247929519504 652.3076372646859 403.261532040436L652.3076372646859 403.261532040436L652.6186101712401 394.77641416159986Q652.6186101712401 384.07006123594783 649.2645452505483 381.18245567508734L649.2645452505483 381.18245567508734Q647.5097695635639 379.7386528946571 644.6221640027034 378.29485011422685L644.6221640027034 378.29485011422685L639.5133233950271 380.6937839647878Q637.4253624510203 396.2202169420301 637.4253624510203 405.6604658909971L637.4253624510203 405.6604658909971L637.5808489042975 419.5653972840638Q637.5808489042975 425.47388250859365 634.2267839836056 425.47388250859365L634.2267839836056 425.47388250859365Q632.9606800069206 425.47388250859365 630.3840473526143 424.0522920786316L630.3840473526143 424.0522920786316Q620.1663661372618 417.6551351438022 616.6346024128247 401.01808464315206L616.6346024128247 401.01808464315206Q616.4791159595477 400.2184400262985 616.4791159595477 399.72976831599897L616.4791159595477 399.72976831599897Q616.4791159595477 398.2859655355687 618.789200408236 398.2859655355687Q621.1214972073926 398.2859655355687 622.7874234925043 399.66313126459454Q624.4755621280844 401.01808464315206 625.275206744938 402.3730380217097Q626.0748513617917 403.72799140026734 626.5635230720911 403.72799140026734L626.5635230720911 403.72799140026734Q627.9851135020533 403.72799140026734 627.9851135020533 401.01808464315206L627.9851135020533 401.01808464315206L627.3631676889449 393.48809783444665Q627.8296270487762 368.6991147119827 631.3613907732133 342.1553559025343L631.3613907732133 342.1553559025343Q632.4720082966212 335.1140408041284 632.9606800069206 333.20377866386684Q633.4271393667519 331.29351652360526 633.4271393667519 330.40502250487896Q633.4271393667519 329.51652848615265 633.2716529134748 329.0500691263213L633.2716529134748 329.0500691263213Q627.0299824319225 330.8048448133058 624.5644115299569 333.29262806573945Q622.0766282775234 335.75819896770497 620.2330031886663 335.75819896770497Q618.3893780998092 335.75819896770497 617.367609978274 335.4472260611508Q616.3236295062704 335.1140408041284 615.4351354875441 334.09227268259315Q614.568853819286 333.0482922105897 614.0801821089866 332.5596205002903L614.0801821089866 332.5596205002903Q610.8816036415719 327.91723925244526 610.8816036415719 324.4076878784764L610.8816036415719 324.4076878784764Q610.8816036415719 316.10026880338546 613.7692092024324 316.10026880338546L613.7692092024324 316.10026880338546ZM673.2538837561585 333.8479368274434Q673.2538837561585 329.849713743175 666.1459316063481 328.006088654318Q659.0157671060695 326.1624635654608 653.6625906432434 326.1624635654608Q648.3094141804175 326.1624635654608 644.3111910961492 326.8066217290374L644.3111910961492 326.8066217290374Q643.8225193858498 328.71688386929895 643.8225193858498 337.75731050983916Q643.8225193858498 346.79773715037925 641.9122572455881 362.9461159407299L641.9122572455881 362.9461159407299Q661.1037280500764 355.74931438904684 672.2987526860278 337.04651529485807L672.2987526860278 337.04651529485807Q673.2538837561585 335.1140408041284 673.2538837561585 333.8479368274434L673.2538837561585 333.8479368274434ZM736.736781394153 403.261532040436Q736.736781394153 427.56184345260056 712.1254970754344 427.56184345260056L712.1254970754344 427.56184345260056Q701.8856035096137 427.56184345260056 697.1543728598962 422.27530404117897Q692.4453545606468 417.0109769802257 688.935803186678 406.1269252508283L688.935803186678 406.1269252508283Q687.6474868595247 401.9732157132829 687.6474868595247 397.26419741403345Q687.6474868595247 392.5329667643159 691.8900457989428 384.6253699976518Q696.1326047383609 376.69556088051945 701.2414453460372 370.7870756559896L701.2414453460372 370.7870756559896Q701.8856035096137 361.99098487059916 705.2396684303055 361.99098487059916L705.2396684303055 361.99098487059916Q706.99444411729 361.99098487059916 707.6386022808665 364.07894581460596L707.6386022808665 364.07894581460596Q710.9926672015583 361.0358538004683 715.7905349026805 358.1482482396078Q720.5884026038025 355.2828550292155 724.4311392347938 355.2828550292155Q728.2738758657852 355.2828550292155 732.3387360014578 359.7475374733152Q736.4258084875989 364.2344322678831 736.4258084875989 368.94345056713246Q736.4258084875989 373.6746812168501 729.8731650994923 381.8266138386639L729.8731650994923 381.8266138386639Q717.545310589665 397.17534801216084 710.526207841727 397.17534801216084L710.526207841727 397.17534801216084Q705.3951548835827 397.17534801216084 702.5297616731904 388.6902301333247L702.5297616731904 388.6902301333247Q702.352062869445 389.02341539034694 700.9971094908874 391.3334998390354Q699.6421561123299 393.665796638192 699.0868473506259 394.77641416159986Q698.5315385889219 395.88703168500774 697.5541951683231 397.8195061757374L697.5541951683231 397.8195061757374Q695.9549059346157 401.4845440029834 695.9549059346157 404.3721495638439L695.9549059346157 404.3721495638439Q695.9549059346157 410.9247929519504 702.5297616731904 410.9247929519504L702.5297616731904 410.9247929519504Q713.3916010521195 410.9247929519504 720.9882249122293 406.3712611059781Q728.5848487723392 401.81772926000576 736.1148355810446 392.5329667643159L736.1148355810446 392.5329667643159Q736.736781394153 399.5742818627218 736.736781394153 403.261532040436L736.736781394153 403.261532040436ZM710.6816942950043 383.8923624322026Q713.2361145988423 383.8923624322026 718.2783181551142 377.6729043011185Q723.3205217113859 371.43123381956616 723.3205217113859 369.0989370204096Q723.3205217113859 366.78885257172124 721.6323830758058 366.78885257172124Q719.9442444402259 366.78885257172124 715.879384304553 370.94256210926665Q711.7923118184121 375.09627164681217 709.3933779678512 378.1393636609497L709.3933779678512 378.1393636609497Q709.0824050612969 380.07183815167946 709.0824050612969 381.0269692218102L709.0824050612969 381.0269692218102Q709.0824050612969 383.8923624322026 710.6816942950043 383.8923624322026L710.6816942950043 383.8923624322026ZM782.9606827183893 398.46366433931394Q782.9606827183893 408.68134555466656 776.4080393302827 418.2770809569106Q769.8553959421761 427.87281635915474 759.7709888296326 427.87281635915474L759.7709888296326 427.87281635915474Q751.7745426610959 427.87281635915474 747.0655243618464 418.21044390550617Q742.3342937121288 408.5258591013894 742.3342937121288 397.7306567738648Q742.3342937121288 386.93545444634015 748.1761418852543 374.1411405766813Q754.0179900583798 361.3468267070226 763.4582390073467 353.6835657955081L763.4582390073467 353.6835657955081Q765.5239876008854 351.75109130477847 768.7225660683002 351.75109130477847Q771.9211445357148 351.75109130477847 776.2525528770057 355.43834148249266L776.2525528770057 355.43834148249266Q778.4960002742896 357.5040900760313 778.4960002742896 364.07894581460596Q778.4960002742896 370.63158920271246 774.6532636432983 384.53652059577917L774.6532636432983 384.53652059577917Q773.6981325731674 388.0682843202162 772.09884333946 388.0682843202162L772.09884333946 388.0682843202162Q769.0557513253225 388.0682843202162 767.4564620916151 370.94256210926665L767.4564620916151 370.94256210926665Q767.3009756383381 368.2326553521515 767.1232768345928 367.5884971885748L767.1232768345928 367.5884971885748Q759.3045294698013 376.22910152068823 754.9064840771061 387.1797903014899Q750.508438684411 398.1304790822917 750.508438684411 408.37037264811227L750.508438684411 408.37037264811227Q750.508438684411 413.65691205953385 754.0179900583798 413.65691205953385L754.0179900583798 413.65691205953385Q760.1041740866549 413.65691205953385 773.2094608628679 402.7728603301366L773.2094608628679 402.7728603301366Q775.6083947134291 400.6848993861297 776.719012236837 399.66313126459454Q777.8518421107128 398.6191507925911 780.0952895079968 396.6200392504569Q782.3165245548125 394.6209277083227 782.649709811835 394.28774245130035L782.649709811835 394.28774245130035Q782.9606827183893 395.7315452317306 782.9606827183893 398.46366433931394L782.9606827183893 398.46366433931394ZM817.034428336543 314.32328076593285Q817.034428336543 319.6098201773543 812.5475335419751 328.9612197244487Q808.0828510978756 338.3126192715431 804.084628013607 342.4885411595567L804.084628013607 342.4885411595567Q803.4404698500305 343.44367222968754 802.1521535228774 343.44367222968754L802.1521535228774 343.44367222968754Q798.153930438609 343.44367222968754 798.153930438609 337.04651529485807Q798.153930438609 330.6493583600287 803.7514427565848 319.1211484670549L803.7514427565848 319.1211484670549Q804.8842726304608 316.72221461649383 805.1952455370149 314.1677943126557Q805.5062184435692 311.6133740088176 805.5950678454419 311.2135517003908Q805.6839172473144 310.81372939196393 805.750554298719 310.56939353681423Q805.8394037005914 310.3250576816645 805.906040751996 309.9252353732376Q805.9948901538687 309.5254130648108 806.0837395557412 309.3032895601292Q806.1503766071457 309.05895370497944 806.3058630604228 308.81461784982974Q806.4835618641682 308.57028199468004 806.6390483174453 308.4147955414029L806.6390483174453 308.4147955414029Q807.1055076772766 308.1038226348487 809.1934686212833 308.1038226348487Q811.2814295652902 308.1038226348487 814.1468227756825 309.85859832183314Q817.034428336543 311.6133740088176 817.034428336543 314.32328076593285L817.034428336543 314.32328076593285ZM818.6337175702504 385.33616521263286Q820.3884932572348 382.6262584555176 821.0992884722159 382.6262584555176Q821.832296037665 382.6262584555176 822.232118346092 386.62448153978596Q822.6319406545188 390.62270462405434 822.6319406545188 397.26419741403345Q822.6319406545188 403.8834778535445 819.4999992385085 411.48010171365434Q816.3902701729664 419.0767255737643 810.4817849484366 423.7191068216092L810.4817849484366 423.7191068216092Q807.1055076772766 426.27352712544734 804.3067515182886 426.27352712544734Q801.5079953593008 426.27352712544734 799.6865826209118 425.07406020016685Q797.8429575320547 423.87459327488637 796.3991547516246 421.1646865177711L796.3991547516246 421.1646865177711Q794.0002209010636 417.32194988677986 791.6901364523751 411.25797820897276Q789.3578396532187 405.1717941806976 789.3578396532187 398.1304790822917Q789.3578396532187 391.08916398388567 790.4906695270947 383.8923624322026Q791.6012870505026 376.69556088051945 791.6012870505026 374.22998997855404Q791.6012870505026 371.74220672612034 789.0468667466644 367.8328330437246Q786.4924464428263 363.90124701086074 786.4924464428263 363.10160239400705Q786.4924464428263 362.30195777715335 787.0477552045302 361.4356761088952Q787.6030639662342 360.5471820901689 788.4915579849605 359.6809004219108Q789.3578396532187 358.7924064031845 790.246333671945 358.1482482396078Q791.1126153402031 357.5040900760313 792.2454452140792 356.54895900590054L792.2454452140792 356.54895900590054Q795.910483041325 353.5058669917629 798.9535750554628 353.5058669917629Q801.9966670696003 353.5058669917629 804.3067515182886 355.5938279357697Q806.6390483174453 357.6817888797766 806.5501989155725 362.79062948745286Q806.4835618641682 367.8994700951291 804.084628013607 382.1375867452181L804.084628013607 382.1375867452181Q801.0415359994695 400.3739264795755 801.0415359994695 403.0838332366908Q801.0415359994695 405.81595234427414 802.4853387798998 405.81595234427414L802.4853387798998 405.81595234427414Q805.6839172473144 405.81595234427414 818.6337175702504 385.33616521263286L818.6337175702504 385.33616521263286ZM829.8287422062019 385.4916516659099L829.984228659479 382.78174490879474Q829.984228659479 378.6280353712492 827.4964454070453 375.8292792122613Q825.0308745050797 373.03052305327344 825.0308745050797 372.23087843641986Q825.0308745050797 371.43123381956616 826.0748549770831 370.94256210926665Q827.0966230986185 370.4761027494353 828.3849394257716 370.23176689428567Q829.6732557529247 369.9874310391359 830.9393597296096 368.2992924035559Q832.2276760567629 366.6333661184441 833.0273206736165 361.19134025374547Q833.8269652904703 355.74931438904684 833.8269652904703 353.4392299403585Q833.8269652904703 351.1069331412019 835.2707680709004 351.1069331412019Q836.6923585008626 351.1069331412019 837.8251883747387 352.08427656180083Q838.9358058981466 353.03940763193157 839.4911146598504 353.9056893001898Q840.0686357720224 354.794183318916 840.8682803888762 356.54895900590054Q841.6679250057298 358.303734692885 841.9788979122841 358.7924064031845L841.9788979122841 358.7924064031845Q847.2654373237056 357.03763071619994 850.7749886976744 357.03763071619994L850.7749886976744 357.03763071619994Q859.882052389619 357.03763071619994 866.5235451795982 365.90035855299493Q873.1650379695775 374.785298740258 873.1650379695775 384.07006123594783L873.1650379695775 384.07006123594783Q873.1650379695775 387.42412615663966 872.3653933527237 391.7333221474622L872.3653933527237 391.7333221474622Q867.4120391983245 413.16824034923434 857.0166591792267 421.1646865177711L857.0166591792267 421.1646865177711Q853.4848954547897 424.0522920786316 850.6195022443974 424.0522920786316Q847.7318966835369 424.0522920786316 845.8216345432754 421.71999527947503Q843.8891600525455 419.40991083078666 843.089515435692 415.72266065307247L843.089515435692 415.72266065307247Q841.6679250057298 409.17001726496596 841.6679250057298 400.52941293285267Q841.6679250057298 391.88880860073937 843.5781871459915 391.88880860073937L843.5781871459915 391.88880860073937Q843.8891600525455 391.88880860073937 845.2663257815714 396.06473048875296Q846.621279160129 400.2184400262985 849.4866723705213 400.2184400262985Q852.3742779313818 400.2184400262985 853.8180807118122 397.330834465438L853.8180807118122 397.330834465438Q856.3725010156502 392.8661520213383 858.7714348662112 386.069172778082Q861.1703687167721 379.27219353482576 861.1703687167721 375.49609395523896Q861.1703687167721 371.74220672612034 857.6608173428033 371.74220672612034L857.6608173428033 371.74220672612034Q855.5728563987966 371.74220672612034 853.0184360949584 372.8750365999964L853.0184360949584 372.8750365999964Q843.089515435692 376.8732596842648 839.8909369682772 390.9336775306085L839.8909369682772 390.9336775306085Q834.2934246503014 415.8781471063496 834.2934246503014 434.4476720977294L834.2934246503014 434.4476720977294Q834.2934246503014 443.24376288311976 835.2707680709004 448.9967616543727L835.2707680709004 448.9967616543727L835.7372274307318 452.6617994816187Q835.7372274307318 454.59427397234833 834.1379381970244 456.34904965933276Q832.538648963317 458.1038253463173 830.6283868230555 458.1038253463173L830.6283868230555 458.1038253463173Q825.4973338649111 458.1038253463173 825.4973338649111 434.11448684070706L825.4973338649111 434.11448684070706Q825.4973338649111 419.0767255737643 829.8287422062019 385.4916516659099L829.8287422062019 385.4916516659099ZM926.2525555884743 403.261532040436Q926.2525555884743 427.56184345260056 901.6412712697554 427.56184345260056L901.6412712697554 427.56184345260056Q891.4013777039347 427.56184345260056 886.6701470542173 422.27530404117897Q881.9611287549678 417.0109769802257 878.451577380999 406.1269252508283L878.451577380999 406.1269252508283Q877.1632610538456 401.9732157132829 877.1632610538456 397.26419741403345Q877.1632610538456 392.5329667643159 881.4058199932638 384.6253699976518Q885.6483789326819 376.69556088051945 890.7572195403582 370.7870756559896L890.7572195403582 370.7870756559896Q891.4013777039347 361.99098487059916 894.7554426246265 361.99098487059916L894.7554426246265 361.99098487059916Q896.5102183116112 361.99098487059916 897.1543764751877 364.07894581460596L897.1543764751877 364.07894581460596Q900.5084413958793 361.0358538004683 905.3063090970015 358.1482482396078Q910.1041767981235 355.2828550292155 913.9469134291148 355.2828550292155Q917.7896500601062 355.2828550292155 921.8545101957789 359.7475374733152Q925.94158268192 364.2344322678831 925.94158268192 368.94345056713246Q925.94158268192 373.6746812168501 919.3889392938133 381.8266138386639L919.3889392938133 381.8266138386639Q907.061084783986 397.17534801216084 900.0419820360482 397.17534801216084L900.0419820360482 397.17534801216084Q894.9109290779038 397.17534801216084 892.0455358675115 388.6902301333247L892.0455358675115 388.6902301333247Q891.867837063766 389.02341539034694 890.5128836852086 391.3334998390354Q889.157930306651 393.665796638192 888.6026215449469 394.77641416159986Q888.0473127832431 395.88703168500774 887.0699693626441 397.8195061757374L887.0699693626441 397.8195061757374Q885.4706801289367 401.4845440029834 885.4706801289367 404.3721495638439L885.4706801289367 404.3721495638439Q885.4706801289367 410.9247929519504 892.0455358675115 410.9247929519504L892.0455358675115 410.9247929519504Q902.9073752464406 410.9247929519504 910.5039991065503 406.3712611059781Q918.1006229666602 401.81772926000576 925.6306097753657 392.5329667643159L925.6306097753657 392.5329667643159Q926.2525555884743 399.5742818627218 926.2525555884743 403.261532040436L926.2525555884743 403.261532040436ZM900.1974684893253 383.8923624322026Q902.7518887931635 383.8923624322026 907.7940923494352 377.6729043011185Q912.836295905707 371.43123381956616 912.836295905707 369.0989370204096Q912.836295905707 366.78885257172124 911.1481572701271 366.78885257172124Q909.4600186345469 366.78885257172124 905.3951584988743 370.94256210926665Q901.3080860127332 375.09627164681217 898.9091521621722 378.1393636609497L898.9091521621722 378.1393636609497Q898.5981792556179 380.07183815167946 898.5981792556179 381.0269692218102L898.5981792556179 381.0269692218102Q898.5981792556179 383.8923624322026 900.1974684893253 383.8923624322026L900.1974684893253 383.8923624322026ZM1015.9904514798311 403.41701849371316L1017.256555456516 370.2984039456901Q1017.256555456516 368.3881418054285 1016.945582549962 368.3881418054285L1016.945582549962 368.3881418054285Q1016.3014243863854 368.3881418054285 1015.5017797695316 370.94256210926665L1015.5017797695316 370.94256210926665Q1012.6141742086711 378.29485011422685 1002.0633077362963 416.85549052694853L1002.0633077362963 416.85549052694853Q1000.4640185025887 422.4530028449243 998.7092428156045 422.4530028449243L998.7092428156045 422.4530028449243Q997.9095981987507 422.4530028449243 995.821637254744 421.1646865177711L995.821637254744 421.1646865177711Q987.66970463293 415.25620129324113 987.66970463293 406.61559696112784L987.66970463293 406.61559696112784Q987.66970463293 399.72976831599897 989.913152030214 387.890585516471L989.913152030214 387.890585516471Q992.4675723340522 373.1860095065506 992.4675723340522 371.9865425812701Q992.4675723340522 370.7870756559896 992.0677500256252 370.7870756559896Q991.6679277171984 370.7870756559896 990.8682831003448 372.3863648896969L990.8682831003448 372.3863648896969Q982.716350478531 391.88880860073937 980.9615747915464 418.92123912048714L980.9615747915464 418.92123912048714Q980.6283895345241 423.7191068216092 977.7629963241318 423.7191068216092L977.7629963241318 423.7191068216092Q973.9202596931405 423.7191068216092 970.8771676790029 419.2544243775095L970.8771676790029 419.2544243775095Q965.2796553610272 411.25797820897276 965.2796553610272 401.32905754970636L965.2796553610272 401.32905754970636Q965.2796553610272 395.08738706815404 966.81230754333 385.4916516659099Q968.3227473751647 375.89591626366587 968.633720281719 373.83016767012714L968.633720281719 373.83016767012714Q971.3658393893024 357.03763071619994 973.6092867865864 357.03763071619994L973.6092867865864 357.03763071619994Q975.3640624735708 357.03763071619994 976.3191935437014 361.59116256217226Q977.2743246138323 366.1446944081446 977.2743246138323 368.2326553521515Q977.2743246138323 370.2984039456901 977.9184827774088 370.2984039456901L977.9184827774088 370.2984039456901Q979.6732584643933 370.2984039456901 981.4280341513777 366.5445167165715Q983.2050221888305 362.79062948745286 985.7594424926685 359.03674225833413Q988.3138627965066 355.2828550292155 992.0677500256252 355.2828550292155Q995.821637254744 355.2828550292155 999.0202157221586 358.0816111882034Q1002.2187941895734 360.8803673471913 1003.018438806427 364.87859043145966L1003.018438806427 364.87859043145966Q1004.9509132971566 362.1464713238762 1009.4155957412563 357.34860362275424L1009.4155957412563 357.34860362275424Q1011.8145295918175 353.9945387020624 1014.302312844251 353.9945387020624Q1016.7900960966847 353.9945387020624 1021.5879637978069 356.3934725526234L1021.5879637978069 356.3934725526234Q1028.1406071859133 359.7475374733152 1028.1406071859133 373.9856541234043Q1028.1406071859133 388.22377077349336 1027.1854761157824 398.46366433931394L1027.1854761157824 398.46366433931394L1027.1854761157824 399.5742818627218Q1027.1854761157824 401.9732157132829 1028.1406071859133 401.9732157132829L1028.1406071859133 401.9732157132829Q1029.5844099663436 401.9732157132829 1035.1819222843194 393.88792014287355Q1040.779434602295 385.82483692293226 1042.0455385789799 385.82483692293226L1042.0455385789799 385.82483692293226Q1044.288985976264 385.82483692293226 1044.288985976264 397.26419741403345Q1044.288985976264 408.68134555466656 1036.13705335445 420.0540689943632L1036.13705335445 420.0540689943632Q1032.2943167234587 425.3183960553166 1029.5844099663436 425.3183960553166L1029.5844099663436 425.3183960553166L1027.807421928891 424.8519366954853Q1021.4102649940614 421.4756594243253 1018.7003582369464 417.1664634335027Q1015.9904514798311 412.85726744268015 1015.9904514798311 403.41701849371316L1015.9904514798311 403.41701849371316ZM1085.3818343423557 386.62448153978596Q1085.3818343423557 405.9714387975513 1074.1868097064041 421.00920006449405L1074.1868097064041 421.00920006449405Q1070.1885866221357 426.1180406721703 1065.3240818696092 426.1180406721703Q1060.4373647666146 426.1180406721703 1057.5719715562223 423.7191068216092L1057.5719715562223 423.7191068216092Q1047.1765915371243 415.0785024894959 1047.1765915371243 394.1322559980232L1047.1765915371243 394.1322559980232Q1047.1765915371243 379.58316644137994 1054.9953389019158 357.03763071619994L1054.9953389019158 357.03763071619994Q1055.6394970654924 355.43834148249266 1056.128168775792 355.03851917406575Q1056.5946281356232 354.63869686563896 1057.7940950609036 354.63869686563896Q1058.9935619861842 354.63869686563896 1060.7705500236368 352.95055823005896Q1062.5253257106212 351.28463194494714 1066.5901858462942 351.28463194494714Q1070.6772583324353 351.28463194494714 1074.8309678699807 354.3055116086166Q1078.984677407526 357.34860362275424 1080.9171518982557 362.47965658089856L1080.9171518982557 362.47965658089856Q1085.3818343423557 374.4743258337037 1085.3818343423557 386.62448153978596L1085.3818343423557 386.62448153978596ZM1072.1210611128654 376.22910152068823Q1072.1210611128654 361.50231316029965 1068.4338109351513 361.50231316029965L1068.4338109351513 361.50231316029965Q1066.6790352481669 361.50231316029965 1065.2352324677365 364.2344322678831L1065.2352324677365 364.2344322678831Q1058.8380755329072 379.4276799881029 1058.8380755329072 400.52941293285267L1058.8380755329072 400.52941293285267Q1058.8380755329072 405.81595234427414 1058.9935619861842 408.5258591013894L1058.9935619861842 408.5258591013894Q1072.1210611128654 398.46366433931394 1072.1210611128654 376.22910152068823L1072.1210611128654 376.22910152068823ZM1144.4000495362504 388.8679289370699Q1144.4000495362504 396.6866763018613 1143.6004049193969 402.4618874235823Q1142.800760302543 408.21488619483523 1137.8474061481438 417.8772586484838Q1132.8940519937448 427.56184345260056 1128.0961842926226 427.56184345260056L1128.0961842926226 427.56184345260056Q1126.008223348616 427.56184345260056 1124.0979612083543 425.3183960553166L1124.0979612083543 425.3183960553166Q1114.6577122593874 413.96788496608804 1114.6577122593874 403.72799140026734L1114.6577122593874 403.72799140026734Q1114.6577122593874 400.6848993861297 1116.745673203394 389.82306000720064L1116.745673203394 389.82306000720064Q1119.6110664137864 373.4969824131048 1119.6110664137864 371.6755696747159Q1119.6110664137864 369.83194458585876 1119.0557576520825 369.83194458585876Q1118.5004488903785 369.83194458585876 1117.8562907268022 371.0980485625438L1117.8562907268022 371.0980485625438Q1113.7025811892565 378.47254891797206 1111.1481608854185 387.82394846506645Q1108.571528231112 397.17534801216084 1107.7718836142585 403.5725049469902Q1106.9722389974047 409.96966188181966 1106.017107927274 421.4756594243253L1106.017107927274 421.4756594243253Q1106.017107927274 425.47388250859365 1103.9513593337354 425.47388250859365L1103.9513593337354 425.47388250859365Q1102.9740159131363 425.47388250859365 1100.7527808663206 423.7191068216092L1100.7527808663206 423.7191068216092Q1092.1121765342073 416.366818816649 1092.1121765342073 403.5725049469902L1092.1121765342073 403.5725049469902Q1092.1121765342073 398.1304790822917 1093.1561570062108 388.53474368004754Q1094.177925127746 378.9390082778034 1094.3556239314912 375.2739704505574L1094.3556239314912 375.2739704505574Q1096.1103996184756 353.03940763193157 1098.6648199223139 353.03940763193157L1098.6648199223139 353.03940763193157Q1100.108622702744 353.03940763193157 1100.7527808663206 356.14913669747364Q1101.3747266794292 359.2810781134839 1101.3747266794292 363.19045179587965Q1101.3747266794292 367.0998254782754 1101.619062534579 370.2984039456901Q1101.8633983897284 373.4969824131048 1102.8185294598593 373.4969824131048Q1103.7736605299901 373.4969824131048 1105.5506485674427 368.3881418054285Q1107.3054242544272 363.27930119775226 1110.7483385769915 358.0816111882034Q1114.1690405490879 352.88392117865453 1118.1672636333562 352.88392117865453Q1122.1654867176246 352.88392117865453 1125.2085787317621 354.63869686563896L1125.2085787317621 354.63869686563896Q1132.094407376891 358.1482482396078 1132.094407376891 369.34327287555936L1132.094407376891 369.34327287555936Q1132.094407376891 373.1860095065506 1131.1392763067602 378.78352182452636Q1130.1619328861614 384.381034142502 1129.4511376711803 391.0225269324811Q1128.7403424561992 397.66401972246035 1128.7403424561992 398.5303013907185Q1128.7403424561992 399.4187954094448 1129.3622882693076 399.4187954094448L1129.3622882693076 399.4187954094448Q1130.6506045964609 399.4187954094448 1135.8482946060096 393.0216384746153Q1141.0459846155586 386.62448153978596 1142.95624675582 386.62448153978596L1142.95624675582 386.62448153978596Q1144.4000495362504 386.62448153978596 1144.4000495362504 388.8679289370699L1144.4000495362504 388.8679289370699ZM1173.6759274532822 353.5058669917629Q1176.0748613038431 352.395249468355 1180.2285708413888 352.395249468355Q1184.3822803789342 352.395249468355 1190.135279150187 355.6826773376423Q1195.910490271908 358.9478928564615 1195.910490271908 363.3459382491568Q1195.910490271908 367.74398364185197 1192.4675759493434 371.275747366289Q1189.024661626779 374.785298740258 1184.7154656359564 374.785298740258L1184.7154656359564 374.785298740258Q1178.1406098973819 374.785298740258 1175.5861895935436 368.6991147119827L1175.5861895935436 368.6991147119827Q1175.2752166869896 367.74398364185197 1174.5422091215403 367.74398364185197Q1173.8314139065592 367.74398364185197 1169.277882060587 369.67645813258173Q1164.7243502146148 371.5867202728432 1163.1250609809072 372.3863648896969Q1161.5257717472 373.1860095065506 1161.5257717472 373.8968047215317Q1161.5257717472 374.62981228698084 1163.7470067940158 375.7404298103887L1163.7470067940158 375.7404298103887Q1192.2232400941937 383.4259030723713 1192.2232400941937 399.26330895616763L1192.2232400941937 399.26330895616763Q1192.2232400941937 404.8608212741434 1187.8251947014985 410.85815590054597Q1183.4271493088033 416.85549052694853 1175.4307031402666 420.6760148074717Q1167.4342569717298 424.5187514384629 1160.0819689667696 424.5187514384629Q1152.7296809618094 424.5187514384629 1149.7532259990764 420.52052835419454Q1146.7989833868114 416.52230526992616 1146.7989833868114 409.0145308116888Q1146.7989833868114 401.4845440029834 1152.085522798233 397.8195061757374L1152.085522798233 397.8195061757374Q1159.1268378966388 393.17712492789246 1163.5915203407385 393.17712492789246L1163.5915203407385 393.17712492789246Q1164.7243502146148 393.17712492789246 1164.7243502146148 393.7324336895964Q1164.7243502146148 394.28774245130035 1162.236566962181 395.7315452317306Q1159.7487837097472 397.17534801216084 1156.9500275507594 399.8852547692761Q1154.1512713917716 402.61737387685946 1154.1512713917716 404.2833001619713Q1154.1512713917716 405.9714387975513 1157.994008022763 405.9714387975513L1157.994008022763 405.9714387975513Q1168.2339015885834 405.9714387975513 1178.1406098973819 400.2184400262985L1178.1406098973819 400.2184400262985Q1180.3840572946656 399.0856101524224 1180.3840572946656 397.57517032058774Q1180.3840572946656 396.06473048875296 1177.029992373974 394.46544125504556Q1173.6759274532822 392.8661520213383 1165.74611833615 389.82306000720064Q1157.8385215694857 386.7799679930631 1153.2849897235135 384.6253699976518Q1148.731457877541 382.47077200224044 1148.731457877541 377.49520549737315L1148.731457877541 377.49520549737315Q1148.731457877541 376.0736150674111 1149.4422530925222 373.43034536170035Q1150.1530483075032 370.7870756559896 1150.3307471112485 369.83194458585876L1150.3307471112485 369.83194458585876Q1151.130391728102 364.2344322678831 1155.3507383170522 362.1464713238762Q1159.5932972564701 360.0807227303376 1173.6759274532822 353.5058669917629L1173.6759274532822 353.5058669917629ZM1225.3196422917488 353.9945387020624L1237.9584697081302 353.35038053848587Q1242.9118238625294 353.35038053848587 1242.9118238625294 359.7475374733152L1242.9118238625294 359.7475374733152Q1242.9118238625294 362.9461159407299 1240.846075268991 364.5454051744373L1240.846075268991 364.5454051744373Q1235.7150223108465 369.1877864222822 1223.2538936982103 370.94256210926665L1223.2538936982103 370.94256210926665Q1221.6546044645027 386.13580982948645 1221.6546044645027 396.2202169420301Q1221.6546044645027 406.28241170410547 1223.098407244933 406.28241170410547L1223.098407244933 406.28241170410547Q1224.0535383150636 406.28241170410547 1229.8065370863167 401.1735710964292Q1235.5595358575695 396.06473048875296 1236.203694021146 396.06473048875296L1236.203694021146 396.06473048875296Q1238.913600778261 396.06473048875296 1238.913600778261 404.2833001619713Q1238.913600778261 412.5240821856578 1235.8927211145917 420.52052835419454Q1232.8496291004542 428.5169745227313 1227.2521167824784 428.5169745227313L1227.2521167824784 428.5169745227313Q1224.8531829319174 428.5169745227313 1222.4542490813565 426.85104823761947Q1220.0553152307953 425.16290960203946 1218.8558483055149 423.47477096645946Q1217.6563813802343 421.80884468134764 1215.501783384823 418.4547797606559Q1213.3249730389437 415.0785024894959 1212.8585136791123 414.45655667638755L1212.8585136791123 414.45655667638755Q1208.5271053378215 408.5258591013894 1208.1272830293947 402.6840109282639Q1207.7274607209679 396.86437510560665 1207.7274607209679 389.02341539034694Q1207.7274607209679 381.18245567508734 1208.7048041415667 372.0753919831427L1208.7048041415667 372.0753919831427Q1203.7292376366995 371.8976931793975 1200.4640221178802 368.54362825870567Q1197.1765942485931 365.18956333801384 1195.3329691597357 360.4805450387644Q1193.511556421347 355.74931438904684 1193.511556421347 355.1051562254703L1193.511556421347 355.1051562254703Q1193.511556421347 353.03940763193157 1195.910490271908 353.03940763193157L1195.910490271908 353.03940763193157L1211.259224445405 353.9945387020624Q1212.0588690622585 349.0411845476632 1213.8136447492432 340.24509376227286L1213.8136447492432 340.24509376227286Q1216.5235515063582 327.45077989261404 1216.5235515063582 325.3628189486072L1216.5235515063582 325.3628189486072L1216.2125785998041 322.3197269344696Q1216.2125785998041 319.76530663063147 1219.1001841606646 319.76530663063147Q1221.965577371057 319.76530663063147 1226.1192869086024 322.65291219149196Q1230.295208796616 325.5183054018843 1230.295208796616 328.0949380561906L1230.295208796616 328.0949380561906Q1230.295208796616 329.20555557959847 1229.16237892274 332.5596205002903L1229.16237892274 332.5596205002903Q1227.71857614231 337.6906734584347 1225.3196422917488 353.9945387020624L1225.3196422917488 353.9945387020624ZM1280.028661494821 403.261532040436Q1266.90116236814 426.76219883574686 1260.0375460734792 426.76219883574686L1260.0375460734792 426.76219883574686Q1255.08419191908 426.76219883574686 1251.0859688348116 420.6760148074717L1251.0859688348116 420.6760148074717Q1249.9531389609356 419.0767255737643 1248.6870349842507 415.65602360166804Q1247.3987186570973 412.2131092791036 1245.5550935682402 409.3255037182431Q1243.7114684793833 406.4601105078508 1243.7114684793833 401.573393404856Q1243.7114684793833 396.6866763018613 1245.643942970113 392.8661520213383L1245.643942970113 392.8661520213383Q1258.749229746326 366.94433902499827 1273.2983193029693 357.34860362275424L1273.2983193029693 357.34860362275424Q1275.2307937936991 355.9048008423239 1277.7852140975372 355.9048008423239Q1280.3396344013752 355.9048008423239 1284.1823710323665 358.7924064031845L1284.1823710323665 358.7924064031845Q1286.4258184296505 361.0358538004683 1286.8922777894816 362.6351430341757L1286.8922777894816 362.6351430341757Q1287.6919224063356 366.1446944081446 1287.6919224063356 366.94433902499827L1287.6919224063356 366.94433902499827Q1293.2894347243111 368.87681351572803 1293.2894347243111 373.9856541234043L1293.2894347243111 373.9856541234043Q1293.2894347243111 377.49520549737315 1291.3791725840495 389.8896970586052Q1289.468910443788 402.2841886198371 1289.1357251867655 408.37037264811227L1289.1357251867655 408.37037264811227Q1289.1357251867655 411.7244375688041 1291.3791725840495 411.7244375688041L1291.3791725840495 411.7244375688041Q1293.933592887888 411.7244375688041 1300.5750856778668 402.7728603301366Q1307.216578467846 393.821283091469 1308.1717095379768 393.821283091469L1308.1717095379768 393.821283091469Q1309.7709987716842 393.821283091469 1309.7709987716842 399.0856101524224L1309.7709987716842 399.0856101524224L1309.4600258651299 406.926569867682Q1309.4600258651299 411.4134646622499 1305.4618027808615 419.1655749756369Q1301.4635796965931 426.9176852890239 1295.2219092150408 426.9176852890239L1295.2219092150408 426.9176852890239Q1291.3791725840495 426.9176852890239 1289.1357251867655 424.36326498518576L1289.1357251867655 424.36326498518576Q1288.336080569912 423.5636203683322 1286.7367913362048 421.1646865177711L1286.7367913362048 421.1646865177711Q1281.7834371818055 413.96788496608804 1280.028661494821 403.261532040436L1280.028661494821 403.261532040436ZM1281.4724642752515 366.3001808614217Q1261.3036500501642 384.6920070490562 1255.8838365359336 408.37037264811227L1255.8838365359336 408.37037264811227Q1272.0322153262844 394.46544125504556 1281.4724642752515 366.3001808614217L1281.4724642752515 366.3001808614217ZM1358.3938339464812 388.3792572267704Q1359.504451469889 388.3792572267704 1359.504451469889 395.0207500167495Q1359.504451469889 401.6622428067287 1355.0397690257894 408.37037264811227L1355.0397690257894 408.37037264811227Q1353.1072945350597 412.2131092791036 1348.8647355956416 417.2553128353753Q1344.6443890066914 422.27530404117897 1343.2005862262615 423.40813391505503L1343.2005862262615 423.40813391505503Q1338.8691778849704 426.4512259291927 1336.2481205297279 426.4512259291927Q1333.6048508240171 426.4512259291927 1332.316534496864 426.1180406721703Q1331.0504305201791 425.807067765616 1329.8509635948988 424.76308729361267Q1328.6514966696182 423.7191068216092 1327.9184891041689 423.1637980599053Q1327.207693889188 422.60848929820133 1326.1637134171845 420.92035066262133Q1325.1197329451809 419.2544243775095 1324.8087600386268 418.7657526672101Q1324.4755747816046 418.2770809569106 1323.3649572581965 416.211332363372Q1322.2543397347888 414.1233714193652 1322.2543397347888 413.96788496608804L1322.2543397347888 413.96788496608804Q1319.2112477206513 408.37037264811227 1319.2112477206513 403.32816909184055Q1319.2112477206513 398.2859655355687 1320.0775293889094 393.88792014287355Q1320.9660234076357 389.4898747501783 1322.8762855478972 383.0927178153489Q1324.8087600386268 376.69556088051945 1325.2752193984581 374.940785193535L1325.2752193984581 374.940785193535Q1322.8762855478972 377.98387720767266 1318.8780624636288 381.4934285816415L1318.8780624636288 381.4934285816415Q1317.2787732299214 382.78174490879474 1315.4573604915324 382.78174490879474Q1313.6137354026753 382.78174490879474 1312.414268477395 381.09360627321473Q1311.2148015521145 379.4276799881029 1309.2823270613846 373.83016767012714Q1307.372064921123 368.2326553521515 1307.372064921123 366.2335438100173Q1307.372064921123 364.2344322678831 1309.9264852249614 359.991873328465Q1312.4809055287994 355.74931438904684 1312.969577239099 354.3055116086166L1312.969577239099 354.3055116086166Q1313.7692218559525 351.4401183982243 1315.3685110896597 351.4401183982243L1315.3685110896597 351.4401183982243Q1316.1681557065137 351.4401183982243 1319.2112477206513 353.1060446833361Q1322.2543397347888 354.794183318916 1323.2094708049196 359.59205102003807L1323.2094708049196 359.59205102003807Q1323.5204437114737 361.50231316029965 1324.6532735853498 361.50231316029965L1324.6532735853498 361.50231316029965Q1325.1197329451809 361.50231316029965 1327.4520297443376 359.7475374733152Q1329.762114193026 357.9927617863308 1332.560870352014 357.9927617863308Q1335.3596265110016 357.9927617863308 1340.9571388289773 363.10160239400705L1340.9571388289773 363.10160239400705Q1342.867400969239 365.0340768847367 1342.867400969239 368.54362825870567Q1342.867400969239 372.0753919831427 1342.467578660812 373.4969824131048Q1342.0677563523852 374.940785193535 1341.601296992554 375.42945690383453L1341.601296992554 375.42945690383453Q1340.1574942121238 376.5400744272424 1339.4466989971427 378.5391859693766Q1338.7136914316934 380.5382975115108 1335.115290655852 393.57694723631926Q1331.5168898800105 406.61559696112784 1331.5168898800105 407.88170093781287Q1331.5168898800105 409.17001726496596 1332.4720209501413 409.17001726496596L1332.4720209501413 409.17001726496596Q1333.7603372772944 409.17001726496596 1342.711914515962 401.4845440029834Q1351.6634917546294 393.821283091469 1355.661714838898 390.1340329137548L1355.661714838898 390.1340329137548Q1358.0606486894587 388.3792572267704 1358.3938339464812 388.3792572267704L1358.3938339464812 388.3792572267704Z " fill="#161b21" transform="matrix(0.6436168192882276,0,0,0.6436168192882276,0,53.42792439185351)"/></g></svg>