<svg xmlns="http://www.w3.org/2000/svg" version="1.1" xmlns:xlink="http://www.w3.org/1999/xlink" xmlns:svgjs="http://svgjs.dev/svgjs" width="1440" height="560" preserveAspectRatio="none" viewBox="0 0 1440 560"><g mask="url(&quot;#SvgjsMask1115&quot;)" fill="none"><rect width="1440" height="560" x="0" y="0" fill="rgba(0, 47, 53, 1)"></rect><path d="M 0,129 C 96,135.2 288,171.2 480,160 C 672,148.8 768,61.8 960,73 C 1152,84.2 1344,187.4 1440,216L1440 560L0 560z" fill="rgba(0, 0, 0, 0)"></path><path d="M 0,531 C 72,498.6 216,382 360,369 C 504,356 576,475.4 720,466 C 864,456.6 936,323.8 1080,322 C 1224,320.2 1368,430 1440,457L1440 560L0 560z" fill="rgba(139, 7, 67, 1)"></path></g><defs><mask id="SvgjsMask1115"><rect width="1440" height="560" fill="#ffffff"></rect></mask></defs></svg>